<?xml version="1.0" encoding="iso-8859-1"?>
<!-- Uploaded to: SVG Repo, www.svgrepo.com, Generator: SVG Repo Mixer Tools -->
<svg height="800px" width="800px" version="1.1" id="Layer_1" xmlns="http://www.w3.org/2000/svg" xmlns:xlink="http://www.w3.org/1999/xlink" 
	 viewBox="0 0 511.984 511.984" xml:space="preserve">
<path style="fill:#DA4453;" d="M448.033,213.329h-85.139c-11.78,0-21.326,9.546-21.326,21.328v39.866
	c1.375-10.461,10.312-18.531,21.139-18.531h42.656c11.78,0,21.342,9.547,21.342,21.343v106.653c0,11.781-9.562,21.344-21.342,21.344
	h-42.656c-10.827,0-19.764-8.078-21.139-18.531v39.843c0,11.781,9.546,21.343,21.326,21.343h85.139
	c11.781,0,21.328-9.562,21.328-21.343V234.657C469.361,222.876,459.814,213.329,448.033,213.329z"/>
<path style="fill:#ED5564;" d="M362.613,469.33c0,23.562-19.107,42.654-42.67,42.654H85.278c-23.562,0-42.655-19.093-42.655-42.654
	V149.331h319.99V469.33z"/>
<g>
	<path style="fill:#E6E9ED;" d="M285.632,110.638l0.047,0.07c-0.016-0.031-2.531-3.297-3.609-7.484
		c-1.125-4.336-0.281-7.508,2.812-10.609c8.656-8.694,11.53-19.991,8.062-31.812c-2.312-7.937-6.797-13.546-7.391-14.249
		c0-0.008,0-0.008,0-0.008c0-0.008-0.016-0.016-0.016-0.023v0.008c-1.953-2.359-4.906-3.867-8.218-3.867
		c-5.891,0-10.656,4.781-10.656,10.671c0,2.586,0.922,4.953,2.453,6.804l0,0c0.016,0.023,2.266,2.938,3.359,6.656
		c1.281,4.359,0.469,7.578-2.703,10.766c-8.641,8.679-11.516,20.038-8.094,31.999c2.328,8.093,6.828,13.835,7.344,14.468v-0.008
		c1.953,2.422,4.953,3.977,8.297,3.977c5.89,0,10.671-4.773,10.671-10.664C287.991,114.794,287.1,112.466,285.632,110.638
		L285.632,110.638z"/>
	<path style="fill:#E6E9ED;" d="M221.102,25.343c-3.172-11.945-9.312-20.226-10-21.132l-0.016,0.008
		C209.148,1.657,206.07,0,202.617,0c-5.89,0-10.671,4.773-10.671,10.664c0,2.414,0.812,4.625,2.156,6.406l-0.016,0.008
		c0.047,0.062,4.5,6.101,6.546,14.319c2.453,9.836,0.484,18.188-6.015,25.539c-11.391,12.882-15.016,28.694-10.5,45.717
		c3.188,11.945,9.312,20.226,10,21.132l0.016-0.008c1.953,2.562,5.016,4.218,8.483,4.218c5.891,0,10.656-4.773,10.656-10.664
		c0-2.414-0.797-4.625-2.141-6.406v-0.008c-0.047-0.062-4.484-6.102-6.531-14.32c-2.469-9.835-0.5-18.187,6-25.538
		C221.993,58.178,225.634,42.366,221.102,25.343z"/>
	<path style="fill:#E6E9ED;" d="M143.573,60.803c-2.328-7.937-6.812-13.546-7.391-14.249c0-0.008,0-0.008,0-0.008
		c-0.016-0.008-0.016-0.016-0.016-0.023v0.008c-1.968-2.359-4.921-3.867-8.218-3.867c-5.891,0-10.672,4.781-10.672,10.671
		c0,2.586,0.922,4.953,2.453,6.804l0,0c0.031,0.023,2.281,2.938,3.375,6.656c1.266,4.359,0.453,7.578-2.719,10.766
		c-8.641,8.679-11.516,20.038-8.078,31.999c2.328,8.093,6.828,13.835,7.328,14.468l0.016-0.008c1.953,2.422,4.938,3.977,8.297,3.977
		c5.891,0,10.671-4.773,10.671-10.664c0-2.539-0.891-4.867-2.375-6.695l0,0l0.062,0.07c-0.031-0.031-2.53-3.297-3.608-7.484
		c-1.125-4.336-0.281-7.508,2.812-10.609C144.167,83.92,147.026,72.623,143.573,60.803z"/>
</g>
<polygon style="fill:#FFCE54;" points="170.635,341.333 85.263,341.333 85.263,255.992 106.605,234.657 149.307,234.657 
	170.635,256.328 "/>
<path style="fill:#434A54;" d="M117.277,149.331v106.661l0,0c0,2.727,1.047,5.461,3.125,7.539c4.172,4.164,10.922,4.164,15.094,0
	c2.077-2.078,3.124-4.812,3.124-7.539v10.664V149.331H117.277z"/>
<g>
	<path style="fill:#DA4453;" d="M103.481,504.453c-4.172-4.171-10.922-4.171-15.094,0c-2.078,2.062-3.125,4.812-3.125,7.531h21.327
		C106.59,509.265,105.558,506.515,103.481,504.453z"/>
	<path style="fill:#DA4453;" d="M146.151,504.453c-4.156-4.171-10.905-4.171-15.077,0c-2.078,2.062-3.125,4.812-3.125,7.531h21.327
		C149.276,509.265,148.245,506.515,146.151,504.453z"/>
	<path style="fill:#DA4453;" d="M188.838,504.453c-4.156-4.171-10.922-4.171-15.078,0c-2.094,2.062-3.125,4.812-3.125,7.531h21.328
		C191.963,509.265,190.916,506.515,188.838,504.453z"/>
	<path style="fill:#DA4453;" d="M231.524,504.453c-4.172-4.171-10.922-4.171-15.078,0c-2.094,2.062-3.125,4.812-3.125,7.531h21.327
		C234.648,509.265,233.601,506.515,231.524,504.453z"/>
	<path style="fill:#DA4453;" d="M274.211,504.453c-4.172-4.171-10.922-4.171-15.094,0c-2.078,2.062-3.125,4.812-3.125,7.531h21.344
		C277.336,509.265,276.289,506.515,274.211,504.453z"/>
	<path style="fill:#DA4453;" d="M316.896,504.453c-4.172-4.171-10.922-4.171-15.094,0c-2.078,2.062-3.125,4.812-3.125,7.531h21.344
		C320.021,509.265,318.974,506.515,316.896,504.453z"/>
</g>
</svg>