<svg width="600" height="600" viewBox="0 0 600 600" fill="none" xmlns="http://www.w3.org/2000/svg">
<g id="tea-cup-mug-svgrepo-com 1" clip-path="url(#clip0_101_43)">
<path id="Vector" d="M525.054 250.003H425.279C411.474 250.003 400.287 261.19 400.287 274.997V321.717C401.898 309.457 412.372 300 425.06 300H475.049C488.854 300 500.06 311.188 500.06 325.012V449.999C500.06 463.805 488.854 475.012 475.049 475.012H425.06C412.372 475.012 401.898 465.546 400.287 453.296V499.988C400.287 513.794 411.474 525 425.279 525H525.054C538.861 525 550.049 513.794 550.049 499.988V274.997C550.049 261.191 538.861 250.003 525.054 250.003Z" fill="#38646D"/>
<path id="Vector_2" d="M424.95 550.013C424.95 577.626 402.558 600 374.945 600H99.938C72.3254 600 49.9501 577.625 49.9501 550.013V175.003H424.95V550.013Z" fill="#38646D"/>
<g id="smog">
<path id="smog3" d="M334.735 129.657L334.79 129.74C334.771 129.703 331.824 125.876 330.561 120.969C329.242 115.888 330.231 112.17 333.856 108.536C344 98.3476 347.368 85.1085 343.304 71.2553C340.595 61.9539 335.339 55.3806 334.643 54.5568C334.643 54.5474 334.643 54.5474 334.643 54.5474C334.643 54.538 334.624 54.5286 334.624 54.5204V54.5298C332.335 51.7653 328.874 49.998 324.993 49.998C318.089 49.998 312.505 55.6009 312.505 62.5035C312.505 65.5341 313.586 68.308 315.38 70.4772C315.399 70.5041 318.035 73.9203 319.316 78.2774C320.818 83.3858 319.866 87.1582 316.149 90.8942C306.022 101.065 302.653 114.377 306.663 128.394C309.391 137.878 314.665 144.608 315.27 145.349V145.34C317.558 148.178 321.074 150.001 324.993 150.001C331.896 150.001 337.498 144.407 337.498 137.503C337.5 134.528 336.455 131.8 334.735 129.657Z" fill="#E6E9ED"/>
<path id="smog2" d="M259.113 29.6997C255.395 15.7012 248.2 5.99666 247.394 4.93491L247.375 4.94428C245.104 1.94185 241.497 0 237.45 0C230.547 0 224.945 5.59352 224.945 12.4972C224.945 15.3262 225.896 17.9173 227.471 20.0045L227.452 20.0139C227.508 20.0865 232.726 27.1637 235.124 36.7944C237.998 48.3213 235.691 58.1091 228.075 66.7238C214.726 81.8203 210.477 100.351 215.77 120.3C219.506 134.298 226.683 144.003 227.489 145.065L227.508 145.055C229.796 148.058 233.386 149.998 237.449 149.998C244.353 149.998 249.937 144.405 249.937 137.501C249.937 134.672 249.003 132.081 247.428 129.994V129.985C247.373 129.912 242.173 122.834 239.774 113.203C236.88 101.677 239.188 91.8894 246.805 83.2747C260.157 68.1793 264.424 49.6491 259.113 29.6997Z" fill="#E6E9ED"/>
<path id="smog1" d="M168.256 71.2553C165.528 61.9539 160.273 55.3806 159.594 54.5568C159.594 54.5474 159.594 54.5474 159.594 54.5474C159.576 54.538 159.576 54.5286 159.576 54.5204V54.5298C157.269 51.7653 153.809 49.998 149.945 49.998C143.041 49.998 137.438 55.6009 137.438 62.5035C137.438 65.5341 138.519 68.308 140.313 70.4772C140.349 70.5041 142.986 73.9203 144.268 78.2774C145.752 83.3858 144.799 87.1582 141.082 90.8942C130.955 101.065 127.586 114.377 131.615 128.394C134.343 137.878 139.617 144.608 140.203 145.349L140.221 145.34C142.51 148.178 146.008 150.001 149.945 150.001C156.849 150.001 162.45 144.407 162.45 137.503C162.45 134.528 161.406 131.8 159.667 129.657L159.74 129.74C159.703 129.703 156.775 125.876 155.511 120.969C154.193 115.888 155.182 112.17 158.807 108.536C168.952 98.3464 172.303 85.1073 168.256 71.2553Z" fill="#E6E9ED"/>
</g>
<g id="teaBag">
<path id="Vector_3" d="M223.599 398.598L123.586 401.276L120.91 301.299L145.243 275.636L195.268 274.297L220.933 299.016L223.599 398.598Z" fill="#FFCE54"/>
<path id="Vector_4" d="M155.069 175.343L158.414 300.295C158.5 303.49 159.812 306.66 162.311 309.029C167.33 313.777 175.237 313.565 179.994 308.556C182.362 306.056 183.503 302.821 183.417 299.626L183.752 312.119L180.072 174.673L155.069 175.343Z" fill="#434A54"/>
<path id="Vector_5" d="M164.082 370.918C164.082 370.918 142.276 358.146 137.505 341.391C132.735 324.636 135.716 315.407 135.716 315.407C135.716 315.407 159.225 343.197 162.77 363.588C162.77 363.588 157.681 334.76 180.867 312.445C180.867 312.445 180.491 330.968 182.002 337.119C183.514 343.269 183.411 360.277 174.746 366.688C174.746 366.688 182.767 361.693 186.777 354.382C190.788 347.07 201.834 341.208 214.686 347.204C214.686 347.204 208.327 345.869 203.782 356.744C199.238 367.619 185.64 382.349 164.082 370.918Z" fill="#A75F73" fill-opacity="0.71"/>
</g>
</g>
<defs>
<clipPath id="clip0_101_43">
<rect width="600" height="600" fill="white"/>
</clipPath>
</defs>
</svg>
